<?xml version="1.0" encoding="utf-8"?>
<svg width="583.76" height="424" viewBox="0 0 583.76 424" fill="none" xmlns="http://www.w3.org/2000/svg">
  <defs>
    <linearGradient id="gradient_1" gradientUnits="userSpaceOnUse" x1="134.095" y1="0" x2="104.369" y2="241.777">
      <stop offset="0" stop-color="#9C3AED" />
      <stop offset="1" stop-color="#4F46E5" />
    </linearGradient>
    <linearGradient id="gradient_2" gradientUnits="userSpaceOnUse" x1="182.53" y1="0" x2="182.53" y2="371.733">
      <stop offset="0" stop-color="#7E4AE4" />
      <stop offset="1" stop-color="#4F46E5" />
    </linearGradient>
    <linearGradient id="gradient_3" gradientUnits="userSpaceOnUse" x1="199" y1="-0" x2="99.5" y2="199.806">
      <stop offset="0" stop-color="#A74AE4" />
      <stop offset="1" stop-color="#4F46E5" />
    </linearGradient>
  </defs>
  <g>
    <path d="M0 22.7414C17.7657 4.65234 131.824 46.9893 203.143 66.1544C314.686 96.1286 412.236 94.3463 451.143 85.154C514.927 70.0843 574.219 -8.49371 583.343 0.754044C578.88 248.565 15.857 214.6 0 22.7414Z" fill="#4F46E5" fill-rule="evenodd" transform="translate(0.417 247.346)" />
    <path d="M0 207.016C22.1551 228.53 52.3827 241.777 85.7043 241.777C153.654 241.777 208.738 186.693 208.738 118.743C208.738 61.9804 170.299 14.1957 118.031 6.10352e-05C121.238 13.1824 122.939 26.9548 122.939 41.1243C122.939 119.326 71.1507 185.431 0 207.016Z" fill="url(#gradient_1)" fill-rule="evenodd" transform="translate(375 129.515)" />
    <path d="M0 136.329C52.7335 140.552 94.2163 184.857 94.2163 238.89C94.2163 272.909 77.7736 303.071 52.4327 321.803C85.6365 352.779 130.201 371.733 179.192 371.733C281.844 371.733 365.059 288.518 365.059 185.867C365.059 83.2153 281.844 0 179.192 0C93.6955 0 21.6814 57.7264 0 136.329Z" fill="url(#gradient_2)" fill-rule="evenodd" transform="translate(108.735 0)" />
    <path d="M0 99.9028C0 44.728 44.5477 0 99.5 0C154.452 0 199 44.728 199 99.9028C199 155.078 154.452 199.806 99.5 199.806C44.5477 199.806 0 155.078 0 99.9028Z" fill="url(#gradient_3)" fill-rule="evenodd" transform="translate(0 160.642)" />
  </g>
</svg>